<svg width="140" height="73" viewBox="0 0 140 73" fill="none" xmlns="http://www.w3.org/2000/svg">
<path d="M17.812 47.6765C28.8861 31.727 39.8163 15.9827 50.912 0C66.6466 24.3548 82.1679 48.3798 98.0116 72.9037C94.4931 72.9037 91.6043 73.1595 88.8009 72.7817C87.6286 72.6237 86.336 71.3164 85.6096 70.1991C74.6505 53.3423 63.7775 36.4295 52.8807 19.5322C52.2599 18.5696 51.6076 17.6274 50.5933 16.1134C39.4847 32.0509 28.5783 47.6984 17.2336 63.9747C21.0205 63.9747 24.1812 63.9747 27.3419 63.9747C33.1243 63.9747 38.9137 63.8062 44.6861 64.0472C47.4866 64.1642 49.0539 63.1435 50.5386 60.8848C54.4695 54.9043 58.657 49.0924 63.0459 42.7766C64.6785 45.3467 66.2283 47.5857 67.5201 49.9648C67.8339 50.5427 67.5461 51.7508 67.115 52.3827C62.7517 58.7791 58.3434 65.1464 53.8203 71.4301C53.2678 72.1977 51.9694 72.8394 51.013 72.8443C34.3644 72.9293 17.7151 72.9057 0.265869 72.9057C6.27564 64.2638 11.9719 56.0726 17.812 47.6765Z" fill="#11A79F"/>
<path d="M100.578 28.5555C97.8903 24.3663 95.3143 20.4018 92.4893 16.0541C88.0077 22.4259 83.6614 28.6054 79.0156 35.2106C77.4204 32.7836 75.857 30.711 74.6798 28.4383C74.2977 27.7006 74.6125 26.2248 75.1413 25.4505C80.8676 17.0673 86.7002 8.75668 92.7735 0.0390625C108.415 24.3098 123.92 48.3686 139.734 72.9077C136.396 72.9077 133.546 73.1147 130.755 72.8032C129.677 72.683 128.42 71.5889 127.771 70.5949C118.691 56.6915 109.701 42.7286 100.578 28.5555Z" fill="#404040"/>
</svg>
